<?xml version="1.0" encoding="UTF-8" standalone="no"?><!DOCTYPE svg PUBLIC "-//W3C//DTD SVG 1.1//EN" "http://www.w3.org/Graphics/SVG/1.1/DTD/svg11.dtd"><svg width="100%" height="100%" viewBox="0 0 324 167" version="1.1" xmlns="http://www.w3.org/2000/svg" xmlns:xlink="http://www.w3.org/1999/xlink" xml:space="preserve" xmlns:serif="http://www.serif.com/" style="fill-rule:evenodd;clip-rule:evenodd;stroke-linejoin:round;stroke-miterlimit:1.41421;"><g id="_3d" serif:id="3d"><g id="red"><path d="M120.085,166.885l-55.705,-76.181c-4.403,-6.019 -8,-11.45 -10.789,-16.294l-0.44,0c0.44,7.78 0.661,16.514 0.661,26.202l0,66.273l-44.036,0l0,-157.868l44.916,0l53.394,72.439c0.66,0.954 1.468,2.092 2.422,3.413c0.954,1.321 1.908,2.679 2.862,4.073c0.954,1.395 1.853,2.752 2.697,4.074c0.844,1.321 1.486,2.495 1.927,3.522l0.44,0c-0.44,-3.229 -0.66,-8.807 -0.66,-16.733l0,-70.788l44.035,0l0,157.868l-41.724,0Z" style="fill:#ff1b40;fill-rule:nonzero;"/><path d="M213.533,166.885l55.705,-76.181c4.404,-6.019 8,-11.45 10.789,-16.294l0.44,0c-0.44,7.78 -0.66,16.514 -0.66,26.202l0,66.273l44.036,0l0,-157.868l-44.917,0l-53.393,72.439c-0.661,0.954 -1.468,2.092 -2.422,3.413c-0.954,1.321 -1.908,2.679 -2.862,4.073c-0.955,1.395 -1.854,2.752 -2.698,4.074c-0.844,1.321 -1.486,2.495 -1.926,3.522l-0.441,0c0.441,-3.229 0.661,-8.807 0.661,-16.733l0,-70.788l-44.036,0l0,157.868l41.724,0Z" style="fill:#ff1b40;fill-rule:nonzero;"/></g><g id="red1" serif:id="red"><path d="M111.085,157.885l-55.705,-76.181c-4.403,-6.019 -8,-11.45 -10.789,-16.294l-0.44,0c0.44,7.78 0.661,16.514 0.661,26.202l0,66.273l-44.036,0l0,-157.868l44.916,0l53.394,72.439c0.66,0.954 1.468,2.092 2.422,3.413c0.954,1.321 1.908,2.679 2.862,4.073c0.954,1.395 1.853,2.752 2.697,4.074c0.844,1.321 1.486,2.495 1.927,3.522l0.44,0c-0.44,-3.229 -0.66,-8.807 -0.66,-16.733l0,-70.788l44.035,0l0,157.868l-41.724,0Z" style="fill:#00fab3;fill-rule:nonzero;"/><path d="M204.533,157.885l55.705,-76.181c4.404,-6.019 8,-11.45 10.789,-16.294l0.44,0c-0.44,7.78 -0.66,16.514 -0.66,26.202l0,66.273l44.036,0l0,-157.868l-44.917,0l-53.393,72.439c-0.661,0.954 -1.468,2.092 -2.422,3.413c-0.954,1.321 -1.908,2.679 -2.862,4.073c-0.955,1.395 -1.854,2.752 -2.698,4.074c-0.844,1.321 -1.486,2.495 -1.926,3.522l-0.441,0c0.441,-3.229 0.661,-8.807 0.661,-16.733l0,-70.788l-44.036,0l0,157.868l41.724,0Z" style="fill:#00fab3;fill-rule:nonzero;"/></g><g id="black"><path d="M115.085,161.885l-55.705,-76.181c-4.403,-6.019 -8,-11.45 -10.789,-16.294l-0.44,0c0.44,7.78 0.661,16.514 0.661,26.202l0,66.273l-44.036,0l0,-157.868l44.916,0l53.394,72.439c0.66,0.954 1.468,2.092 2.422,3.413c0.954,1.321 1.908,2.679 2.862,4.073c0.954,1.395 1.853,2.752 2.697,4.074c0.844,1.321 1.486,2.495 1.927,3.522l0.44,0c-0.44,-3.229 -0.66,-8.807 -0.66,-16.733l0,-70.788l44.035,0l0,157.868l-41.724,0Z" style="fill:#000d2b;fill-rule:nonzero;"/><path d="M208.533,161.885l55.705,-76.181c4.404,-6.019 8,-11.45 10.789,-16.294l0.44,0c-0.44,7.78 -0.66,16.514 -0.66,26.202l0,66.273l44.036,0l0,-157.868l-44.917,0l-53.393,72.439c-0.661,0.954 -1.468,2.092 -2.422,3.413c-0.954,1.321 -1.908,2.679 -2.862,4.073c-0.955,1.395 -1.854,2.752 -2.698,4.074c-0.844,1.321 -1.486,2.495 -1.926,3.522l-0.441,0c0.441,-3.229 0.661,-8.807 0.661,-16.733l0,-70.788l-44.036,0l0,157.868l41.724,0Z" style="fill:#000d2b;fill-rule:nonzero;"/></g></g></svg>